<?xml version="1.0" encoding="utf-8" standalone="no"?>
<!DOCTYPE svg PUBLIC "-//W3C//DTD SVG 1.1//EN"
  "http://www.w3.org/Graphics/SVG/1.1/DTD/svg11.dtd">
<!-- Created with matplotlib (http://matplotlib.org/) -->
<svg height="481pt" version="1.1" viewBox="0 0 640 481" width="640pt" xmlns="http://www.w3.org/2000/svg" xmlns:xlink="http://www.w3.org/1999/xlink">
 <defs>
  <style type="text/css">
*{stroke-linecap:butt;stroke-linejoin:round;stroke-miterlimit:100000;}
  </style>
 </defs>
 <g id="figure_1">
  <g id="patch_1">
   <path d="M 0 481.663016 
L 640.309656 481.663016 
L 640.309656 0 
L 0 0 
z
" style="fill:#ffffff;"/>
  </g>
  <g id="axes_1">
   <g id="patch_2">
    <path d="M 52.789656 435.396312 
L 633.109656 435.396312 
L 633.109656 23.556312 
L 52.789656 23.556312 
z
" style="fill:#ffffff;"/>
   </g>
   <g id="matplotlib.axis_1">
    <g id="xtick_1">
     <g id="line2d_1"/>
     <g id="text_1">
      <!-- Nov 2013 -->
      <defs>
       <path d="M 4.203125 18.890625 
L 12.984375 20.0625 
Q 14.5 12.59375 18.140625 9.296875 
Q 21.78125 6 27 6 
Q 33.203125 6 37.46875 10.296875 
Q 41.75 14.59375 41.75 20.953125 
Q 41.75 27 37.796875 30.921875 
Q 33.84375 34.859375 27.734375 34.859375 
Q 25.25 34.859375 21.53125 33.890625 
L 22.515625 41.609375 
Q 23.390625 41.5 23.921875 41.5 
Q 29.546875 41.5 34.03125 44.421875 
Q 38.53125 47.359375 38.53125 53.46875 
Q 38.53125 58.296875 35.25 61.46875 
Q 31.984375 64.65625 26.8125 64.65625 
Q 21.6875 64.65625 18.265625 61.421875 
Q 14.84375 58.203125 13.875 51.765625 
L 5.078125 53.328125 
Q 6.6875 62.15625 12.390625 67.015625 
Q 18.109375 71.875 26.609375 71.875 
Q 32.46875 71.875 37.390625 69.359375 
Q 42.328125 66.84375 44.9375 62.5 
Q 47.5625 58.15625 47.5625 53.265625 
Q 47.5625 48.640625 45.0625 44.828125 
Q 42.578125 41.015625 37.703125 38.765625 
Q 44.046875 37.3125 47.5625 32.6875 
Q 51.078125 28.078125 51.078125 21.140625 
Q 51.078125 11.765625 44.234375 5.25 
Q 37.40625 -1.265625 26.953125 -1.265625 
Q 17.53125 -1.265625 11.296875 4.34375 
Q 5.078125 9.96875 4.203125 18.890625 
" id="ArialMT-33"/>
       <path d="M 50.34375 8.453125 
L 50.34375 0 
L 3.03125 0 
Q 2.9375 3.171875 4.046875 6.109375 
Q 5.859375 10.9375 9.828125 15.625 
Q 13.8125 20.3125 21.34375 26.46875 
Q 33.015625 36.03125 37.109375 41.625 
Q 41.21875 47.21875 41.21875 52.203125 
Q 41.21875 57.421875 37.46875 61 
Q 33.734375 64.59375 27.734375 64.59375 
Q 21.390625 64.59375 17.578125 60.78125 
Q 13.765625 56.984375 13.71875 50.25 
L 4.6875 51.171875 
Q 5.609375 61.28125 11.65625 66.578125 
Q 17.71875 71.875 27.9375 71.875 
Q 38.234375 71.875 44.234375 66.15625 
Q 50.25 60.453125 50.25 52 
Q 50.25 47.703125 48.484375 43.546875 
Q 46.734375 39.40625 42.65625 34.8125 
Q 38.578125 30.21875 29.109375 22.21875 
Q 21.1875 15.578125 18.9375 13.203125 
Q 16.703125 10.84375 15.234375 8.453125 
z
" id="ArialMT-32"/>
       <path d="M 7.625 0 
L 7.625 71.578125 
L 17.328125 71.578125 
L 54.9375 15.375 
L 54.9375 71.578125 
L 64.015625 71.578125 
L 64.015625 0 
L 54.296875 0 
L 16.703125 56.25 
L 16.703125 0 
z
" id="ArialMT-4e"/>
       <path d="M 4.15625 35.296875 
Q 4.15625 48 6.765625 55.734375 
Q 9.375 63.484375 14.515625 67.671875 
Q 19.671875 71.875 27.484375 71.875 
Q 33.25 71.875 37.59375 69.546875 
Q 41.9375 67.234375 44.765625 62.859375 
Q 47.609375 58.5 49.21875 52.21875 
Q 50.828125 45.953125 50.828125 35.296875 
Q 50.828125 22.703125 48.234375 14.96875 
Q 45.65625 7.234375 40.5 3 
Q 35.359375 -1.21875 27.484375 -1.21875 
Q 17.140625 -1.21875 11.234375 6.203125 
Q 4.15625 15.140625 4.15625 35.296875 
M 13.1875 35.296875 
Q 13.1875 17.671875 17.3125 11.828125 
Q 21.4375 6 27.484375 6 
Q 33.546875 6 37.671875 11.859375 
Q 41.796875 17.71875 41.796875 35.296875 
Q 41.796875 52.984375 37.671875 58.78125 
Q 33.546875 64.59375 27.390625 64.59375 
Q 21.34375 64.59375 17.71875 59.46875 
Q 13.1875 52.9375 13.1875 35.296875 
" id="ArialMT-30"/>
       <path id="ArialMT-20"/>
       <path d="M 37.25 0 
L 28.46875 0 
L 28.46875 56 
Q 25.296875 52.984375 20.140625 49.953125 
Q 14.984375 46.921875 10.890625 45.40625 
L 10.890625 53.90625 
Q 18.265625 57.375 23.78125 62.296875 
Q 29.296875 67.234375 31.59375 71.875 
L 37.25 71.875 
z
" id="ArialMT-31"/>
       <path d="M 3.328125 25.921875 
Q 3.328125 40.328125 11.328125 47.265625 
Q 18.015625 53.03125 27.640625 53.03125 
Q 38.328125 53.03125 45.109375 46.015625 
Q 51.90625 39.015625 51.90625 26.65625 
Q 51.90625 16.65625 48.90625 10.90625 
Q 45.90625 5.171875 40.15625 2 
Q 34.421875 -1.171875 27.640625 -1.171875 
Q 16.75 -1.171875 10.03125 5.8125 
Q 3.328125 12.796875 3.328125 25.921875 
M 12.359375 25.921875 
Q 12.359375 15.96875 16.703125 11.015625 
Q 21.046875 6.0625 27.640625 6.0625 
Q 34.1875 6.0625 38.53125 11.03125 
Q 42.875 16.015625 42.875 26.21875 
Q 42.875 35.84375 38.5 40.796875 
Q 34.125 45.75 27.640625 45.75 
Q 21.046875 45.75 16.703125 40.8125 
Q 12.359375 35.890625 12.359375 25.921875 
" id="ArialMT-6f"/>
       <path d="M 21 0 
L 1.265625 51.859375 
L 10.546875 51.859375 
L 21.6875 20.796875 
Q 23.484375 15.765625 25 10.359375 
Q 26.171875 14.453125 28.265625 20.21875 
L 39.796875 51.859375 
L 48.828125 51.859375 
L 29.203125 0 
z
" id="ArialMT-76"/>
      </defs>
      <g style="fill:#262626;" transform="translate(40.109639678 453.80146875)scale(0.13 -0.13)">
       <use xlink:href="#ArialMT-4e"/>
       <use x="72.216796875" xlink:href="#ArialMT-6f"/>
       <use x="127.83203125" xlink:href="#ArialMT-76"/>
       <use x="177.83203125" xlink:href="#ArialMT-20"/>
       <use x="205.615234375" xlink:href="#ArialMT-32"/>
       <use x="261.23046875" xlink:href="#ArialMT-30"/>
       <use x="316.845703125" xlink:href="#ArialMT-31"/>
       <use x="372.4609375" xlink:href="#ArialMT-33"/>
      </g>
     </g>
    </g>
    <g id="xtick_2">
     <g id="line2d_2"/>
     <g id="text_2">
      <!-- Mar 2014 -->
      <defs>
       <path d="M 7.421875 0 
L 7.421875 71.578125 
L 21.6875 71.578125 
L 38.625 20.90625 
Q 40.96875 13.8125 42.046875 10.296875 
Q 43.265625 14.203125 45.84375 21.78125 
L 62.984375 71.578125 
L 75.734375 71.578125 
L 75.734375 0 
L 66.609375 0 
L 66.609375 59.90625 
L 45.796875 0 
L 37.25 0 
L 16.546875 60.9375 
L 16.546875 0 
z
" id="ArialMT-4d"/>
       <path d="M 40.4375 6.390625 
Q 35.546875 2.25 31.03125 0.53125 
Q 26.515625 -1.171875 21.34375 -1.171875 
Q 12.796875 -1.171875 8.203125 3 
Q 3.609375 7.171875 3.609375 13.671875 
Q 3.609375 17.484375 5.34375 20.625 
Q 7.078125 23.78125 9.890625 25.6875 
Q 12.703125 27.59375 16.21875 28.5625 
Q 18.796875 29.25 24.03125 29.890625 
Q 34.671875 31.15625 39.703125 32.90625 
Q 39.75 34.71875 39.75 35.203125 
Q 39.75 40.578125 37.25 42.78125 
Q 33.890625 45.75 27.25 45.75 
Q 21.046875 45.75 18.09375 43.578125 
Q 15.140625 41.40625 13.71875 35.890625 
L 5.125 37.0625 
Q 6.296875 42.578125 8.984375 45.96875 
Q 11.671875 49.359375 16.75 51.1875 
Q 21.828125 53.03125 28.515625 53.03125 
Q 35.15625 53.03125 39.296875 51.46875 
Q 43.453125 49.90625 45.40625 47.53125 
Q 47.359375 45.171875 48.140625 41.546875 
Q 48.578125 39.3125 48.578125 33.453125 
L 48.578125 21.734375 
Q 48.578125 9.46875 49.140625 6.21875 
Q 49.703125 2.984375 51.375 0 
L 42.1875 0 
Q 40.828125 2.734375 40.4375 6.390625 
M 39.703125 26.03125 
Q 34.90625 24.078125 25.34375 22.703125 
Q 19.921875 21.921875 17.671875 20.9375 
Q 15.4375 19.96875 14.203125 18.09375 
Q 12.984375 16.21875 12.984375 13.921875 
Q 12.984375 10.40625 15.640625 8.0625 
Q 18.3125 5.71875 23.4375 5.71875 
Q 28.515625 5.71875 32.46875 7.9375 
Q 36.421875 10.15625 38.28125 14.015625 
Q 39.703125 17 39.703125 22.796875 
z
" id="ArialMT-61"/>
       <path d="M 6.5 0 
L 6.5 51.859375 
L 14.40625 51.859375 
L 14.40625 44 
Q 17.4375 49.515625 20 51.265625 
Q 22.5625 53.03125 25.640625 53.03125 
Q 30.078125 53.03125 34.671875 50.203125 
L 31.640625 42.046875 
Q 28.421875 43.953125 25.203125 43.953125 
Q 22.3125 43.953125 20.015625 42.21875 
Q 17.71875 40.484375 16.75 37.40625 
Q 15.28125 32.71875 15.28125 27.15625 
L 15.28125 0 
z
" id="ArialMT-72"/>
       <path d="M 32.328125 0 
L 32.328125 17.140625 
L 1.265625 17.140625 
L 1.265625 25.203125 
L 33.9375 71.578125 
L 41.109375 71.578125 
L 41.109375 25.203125 
L 50.78125 25.203125 
L 50.78125 17.140625 
L 41.109375 17.140625 
L 41.109375 0 
z
M 32.328125 25.203125 
L 32.328125 57.46875 
L 9.90625 25.203125 
z
" id="ArialMT-34"/>
      </defs>
      <g style="fill:#262626;" transform="translate(99.0934464963 453.80146875)scale(0.13 -0.13)">
       <use xlink:href="#ArialMT-4d"/>
       <use x="83.30078125" xlink:href="#ArialMT-61"/>
       <use x="138.916015625" xlink:href="#ArialMT-72"/>
       <use x="172.216796875" xlink:href="#ArialMT-20"/>
       <use x="200.0" xlink:href="#ArialMT-32"/>
       <use x="255.615234375" xlink:href="#ArialMT-30"/>
       <use x="311.23046875" xlink:href="#ArialMT-31"/>
       <use x="366.845703125" xlink:href="#ArialMT-34"/>
      </g>
     </g>
    </g>
    <g id="xtick_3">
     <g id="line2d_3"/>
     <g id="text_3">
      <!-- Jul 2014 -->
      <defs>
       <path d="M 6.390625 0 
L 6.390625 71.578125 
L 15.1875 71.578125 
L 15.1875 0 
z
" id="ArialMT-6c"/>
       <path d="M 40.578125 0 
L 40.578125 7.625 
Q 34.515625 -1.171875 24.125 -1.171875 
Q 19.53125 -1.171875 15.546875 0.578125 
Q 11.578125 2.34375 9.640625 5 
Q 7.71875 7.671875 6.9375 11.53125 
Q 6.390625 14.109375 6.390625 19.734375 
L 6.390625 51.859375 
L 15.1875 51.859375 
L 15.1875 23.09375 
Q 15.1875 16.21875 15.71875 13.8125 
Q 16.546875 10.359375 19.234375 8.375 
Q 21.921875 6.390625 25.875 6.390625 
Q 29.828125 6.390625 33.296875 8.421875 
Q 36.765625 10.453125 38.203125 13.9375 
Q 39.65625 17.4375 39.65625 24.078125 
L 39.65625 51.859375 
L 48.4375 51.859375 
L 48.4375 0 
z
" id="ArialMT-75"/>
       <path d="M 2.875 20.3125 
L 11.421875 21.484375 
Q 11.765625 13.28125 14.5 10.25 
Q 17.234375 7.234375 22.078125 7.234375 
Q 25.640625 7.234375 28.21875 8.859375 
Q 30.8125 10.5 31.78125 13.296875 
Q 32.765625 16.109375 32.765625 22.265625 
L 32.765625 71.578125 
L 42.234375 71.578125 
L 42.234375 22.796875 
Q 42.234375 13.8125 40.0625 8.875 
Q 37.890625 3.953125 33.171875 1.359375 
Q 28.46875 -1.21875 22.125 -1.21875 
Q 12.703125 -1.21875 7.6875 4.203125 
Q 2.6875 9.625 2.875 20.3125 
" id="ArialMT-4a"/>
      </defs>
      <g style="fill:#262626;" transform="translate(161.572973011 453.80146875)scale(0.13 -0.13)">
       <use xlink:href="#ArialMT-4a"/>
       <use x="50.0" xlink:href="#ArialMT-75"/>
       <use x="105.615234375" xlink:href="#ArialMT-6c"/>
       <use x="127.83203125" xlink:href="#ArialMT-20"/>
       <use x="155.615234375" xlink:href="#ArialMT-32"/>
       <use x="211.23046875" xlink:href="#ArialMT-30"/>
       <use x="266.845703125" xlink:href="#ArialMT-31"/>
       <use x="322.4609375" xlink:href="#ArialMT-34"/>
      </g>
     </g>
    </g>
    <g id="xtick_4">
     <g id="line2d_4"/>
     <g id="text_4">
      <!-- Nov 2014 -->
      <g style="fill:#262626;" transform="translate(218.406609375 453.80146875)scale(0.13 -0.13)">
       <use xlink:href="#ArialMT-4e"/>
       <use x="72.216796875" xlink:href="#ArialMT-6f"/>
       <use x="127.83203125" xlink:href="#ArialMT-76"/>
       <use x="177.83203125" xlink:href="#ArialMT-20"/>
       <use x="205.615234375" xlink:href="#ArialMT-32"/>
       <use x="261.23046875" xlink:href="#ArialMT-30"/>
       <use x="316.845703125" xlink:href="#ArialMT-31"/>
       <use x="372.4609375" xlink:href="#ArialMT-34"/>
      </g>
     </g>
    </g>
    <g id="xtick_5">
     <g id="line2d_5"/>
     <g id="text_5">
      <!-- Mar 2015 -->
      <defs>
       <path d="M 4.15625 18.75 
L 13.375 19.53125 
Q 14.40625 12.796875 18.140625 9.390625 
Q 21.875 6 27.15625 6 
Q 33.5 6 37.890625 10.78125 
Q 42.28125 15.578125 42.28125 23.484375 
Q 42.28125 31 38.0625 35.34375 
Q 33.84375 39.703125 27 39.703125 
Q 22.75 39.703125 19.328125 37.765625 
Q 15.921875 35.84375 13.96875 32.765625 
L 5.71875 33.84375 
L 12.640625 70.609375 
L 48.25 70.609375 
L 48.25 62.203125 
L 19.671875 62.203125 
L 15.828125 42.96875 
Q 22.265625 47.46875 29.34375 47.46875 
Q 38.71875 47.46875 45.15625 40.96875 
Q 51.609375 34.46875 51.609375 24.265625 
Q 51.609375 14.546875 45.953125 7.46875 
Q 39.0625 -1.21875 27.15625 -1.21875 
Q 17.390625 -1.21875 11.203125 4.25 
Q 5.03125 9.71875 4.15625 18.75 
" id="ArialMT-35"/>
      </defs>
      <g style="fill:#262626;" transform="translate(277.390416193 453.80146875)scale(0.13 -0.13)">
       <use xlink:href="#ArialMT-4d"/>
       <use x="83.30078125" xlink:href="#ArialMT-61"/>
       <use x="138.916015625" xlink:href="#ArialMT-72"/>
       <use x="172.216796875" xlink:href="#ArialMT-20"/>
       <use x="200.0" xlink:href="#ArialMT-32"/>
       <use x="255.615234375" xlink:href="#ArialMT-30"/>
       <use x="311.23046875" xlink:href="#ArialMT-31"/>
       <use x="366.845703125" xlink:href="#ArialMT-35"/>
      </g>
     </g>
    </g>
    <g id="xtick_6">
     <g id="line2d_6"/>
     <g id="text_6">
      <!-- Jul 2015 -->
      <g style="fill:#262626;" transform="translate(339.869942708 453.80146875)scale(0.13 -0.13)">
       <use xlink:href="#ArialMT-4a"/>
       <use x="50.0" xlink:href="#ArialMT-75"/>
       <use x="105.615234375" xlink:href="#ArialMT-6c"/>
       <use x="127.83203125" xlink:href="#ArialMT-20"/>
       <use x="155.615234375" xlink:href="#ArialMT-32"/>
       <use x="211.23046875" xlink:href="#ArialMT-30"/>
       <use x="266.845703125" xlink:href="#ArialMT-31"/>
       <use x="322.4609375" xlink:href="#ArialMT-35"/>
      </g>
     </g>
    </g>
    <g id="xtick_7">
     <g id="line2d_7"/>
     <g id="text_7">
      <!-- Nov 2015 -->
      <g style="fill:#262626;" transform="translate(396.703579072 453.80146875)scale(0.13 -0.13)">
       <use xlink:href="#ArialMT-4e"/>
       <use x="72.216796875" xlink:href="#ArialMT-6f"/>
       <use x="127.83203125" xlink:href="#ArialMT-76"/>
       <use x="177.83203125" xlink:href="#ArialMT-20"/>
       <use x="205.615234375" xlink:href="#ArialMT-32"/>
       <use x="261.23046875" xlink:href="#ArialMT-30"/>
       <use x="316.845703125" xlink:href="#ArialMT-31"/>
       <use x="372.4609375" xlink:href="#ArialMT-35"/>
      </g>
     </g>
    </g>
    <g id="xtick_8">
     <g id="line2d_8"/>
     <g id="text_8">
      <!-- Mar 2016 -->
      <defs>
       <path d="M 49.75 54.046875 
L 41.015625 53.375 
Q 39.84375 58.546875 37.703125 60.890625 
Q 34.125 64.65625 28.90625 64.65625 
Q 24.703125 64.65625 21.53125 62.3125 
Q 17.390625 59.28125 14.984375 53.46875 
Q 12.59375 47.65625 12.5 36.921875 
Q 15.671875 41.75 20.265625 44.09375 
Q 24.859375 46.4375 29.890625 46.4375 
Q 38.671875 46.4375 44.84375 39.96875 
Q 51.03125 33.5 51.03125 23.25 
Q 51.03125 16.5 48.125 10.71875 
Q 45.21875 4.9375 40.140625 1.859375 
Q 35.0625 -1.21875 28.609375 -1.21875 
Q 17.625 -1.21875 10.6875 6.859375 
Q 3.765625 14.9375 3.765625 33.5 
Q 3.765625 54.25 11.421875 63.671875 
Q 18.109375 71.875 29.4375 71.875 
Q 37.890625 71.875 43.28125 67.140625 
Q 48.6875 62.40625 49.75 54.046875 
M 13.875 23.1875 
Q 13.875 18.65625 15.796875 14.5 
Q 17.71875 10.359375 21.1875 8.171875 
Q 24.65625 6 28.46875 6 
Q 34.03125 6 38.03125 10.484375 
Q 42.046875 14.984375 42.046875 22.703125 
Q 42.046875 30.125 38.078125 34.390625 
Q 34.125 38.671875 28.125 38.671875 
Q 22.171875 38.671875 18.015625 34.390625 
Q 13.875 30.125 13.875 23.1875 
" id="ArialMT-36"/>
      </defs>
      <g style="fill:#262626;" transform="translate(456.175870739 453.80146875)scale(0.13 -0.13)">
       <use xlink:href="#ArialMT-4d"/>
       <use x="83.30078125" xlink:href="#ArialMT-61"/>
       <use x="138.916015625" xlink:href="#ArialMT-72"/>
       <use x="172.216796875" xlink:href="#ArialMT-20"/>
       <use x="200.0" xlink:href="#ArialMT-32"/>
       <use x="255.615234375" xlink:href="#ArialMT-30"/>
       <use x="311.23046875" xlink:href="#ArialMT-31"/>
       <use x="366.845703125" xlink:href="#ArialMT-36"/>
      </g>
     </g>
    </g>
    <g id="xtick_9">
     <g id="line2d_9"/>
     <g id="text_9">
      <!-- Jul 2016 -->
      <g style="fill:#262626;" transform="translate(518.655397254 453.80146875)scale(0.13 -0.13)">
       <use xlink:href="#ArialMT-4a"/>
       <use x="50.0" xlink:href="#ArialMT-75"/>
       <use x="105.615234375" xlink:href="#ArialMT-6c"/>
       <use x="127.83203125" xlink:href="#ArialMT-20"/>
       <use x="155.615234375" xlink:href="#ArialMT-32"/>
       <use x="211.23046875" xlink:href="#ArialMT-30"/>
       <use x="266.845703125" xlink:href="#ArialMT-31"/>
       <use x="322.4609375" xlink:href="#ArialMT-36"/>
      </g>
     </g>
    </g>
    <g id="xtick_10">
     <g id="line2d_10"/>
     <g id="text_10">
      <!-- Nov 2016 -->
      <g style="fill:#262626;" transform="translate(575.489033617 453.80146875)scale(0.13 -0.13)">
       <use xlink:href="#ArialMT-4e"/>
       <use x="72.216796875" xlink:href="#ArialMT-6f"/>
       <use x="127.83203125" xlink:href="#ArialMT-76"/>
       <use x="177.83203125" xlink:href="#ArialMT-20"/>
       <use x="205.615234375" xlink:href="#ArialMT-32"/>
       <use x="261.23046875" xlink:href="#ArialMT-30"/>
       <use x="316.845703125" xlink:href="#ArialMT-31"/>
       <use x="372.4609375" xlink:href="#ArialMT-36"/>
      </g>
     </g>
    </g>
    <g id="text_11">
     <!-- Month -->
     <defs>
      <path d="M 6.59375 0 
L 6.59375 51.859375 
L 14.5 51.859375 
L 14.5 44.484375 
Q 20.21875 53.03125 31 53.03125 
Q 35.6875 53.03125 39.625 51.34375 
Q 43.5625 49.65625 45.515625 46.921875 
Q 47.46875 44.1875 48.25 40.4375 
Q 48.734375 37.984375 48.734375 31.890625 
L 48.734375 0 
L 39.9375 0 
L 39.9375 31.546875 
Q 39.9375 36.921875 38.90625 39.578125 
Q 37.890625 42.234375 35.28125 43.8125 
Q 32.671875 45.40625 29.15625 45.40625 
Q 23.53125 45.40625 19.453125 41.84375 
Q 15.375 38.28125 15.375 28.328125 
L 15.375 0 
z
" id="ArialMT-6e"/>
      <path d="M 6.59375 0 
L 6.59375 71.578125 
L 15.375 71.578125 
L 15.375 45.90625 
Q 21.53125 53.03125 30.90625 53.03125 
Q 36.671875 53.03125 40.921875 50.75 
Q 45.171875 48.484375 47 44.484375 
Q 48.828125 40.484375 48.828125 32.859375 
L 48.828125 0 
L 40.046875 0 
L 40.046875 32.859375 
Q 40.046875 39.453125 37.1875 42.453125 
Q 34.328125 45.453125 29.109375 45.453125 
Q 25.203125 45.453125 21.75 43.421875 
Q 18.3125 41.40625 16.84375 37.9375 
Q 15.375 34.46875 15.375 28.375 
L 15.375 0 
z
" id="ArialMT-68"/>
      <path d="M 25.78125 7.859375 
L 27.046875 0.09375 
Q 23.34375 -0.6875 20.40625 -0.6875 
Q 15.625 -0.6875 12.984375 0.828125 
Q 10.359375 2.34375 9.28125 4.8125 
Q 8.203125 7.28125 8.203125 15.1875 
L 8.203125 45.015625 
L 1.765625 45.015625 
L 1.765625 51.859375 
L 8.203125 51.859375 
L 8.203125 64.703125 
L 16.9375 69.96875 
L 16.9375 51.859375 
L 25.78125 51.859375 
L 25.78125 45.015625 
L 16.9375 45.015625 
L 16.9375 14.703125 
Q 16.9375 10.9375 17.40625 9.859375 
Q 17.875 8.796875 18.921875 8.15625 
Q 19.96875 7.515625 21.921875 7.515625 
Q 23.390625 7.515625 25.78125 7.859375 
" id="ArialMT-74"/>
     </defs>
     <g style="fill:#262626;" transform="translate(323.079359375 471.620890625)scale(0.14300000000000002 -0.14300000000000002)">
      <use xlink:href="#ArialMT-4d"/>
      <use x="83.30078125" xlink:href="#ArialMT-6f"/>
      <use x="138.916015625" xlink:href="#ArialMT-6e"/>
      <use x="194.53125" xlink:href="#ArialMT-74"/>
      <use x="222.314453125" xlink:href="#ArialMT-68"/>
     </g>
    </g>
   </g>
   <g id="matplotlib.axis_2">
    <g id="ytick_1">
     <g id="line2d_11"/>
     <g id="text_12">
      <!-- 4.0 -->
      <defs>
       <path d="M 9.078125 0 
L 9.078125 10.015625 
L 19.09375 10.015625 
L 19.09375 0 
z
" id="ArialMT-2e"/>
      </defs>
      <g style="fill:#262626;" transform="translate(25.61965625 438.757015625)scale(0.13 -0.13)">
       <use xlink:href="#ArialMT-34"/>
       <use x="55.615234375" xlink:href="#ArialMT-2e"/>
       <use x="83.3984375" xlink:href="#ArialMT-30"/>
      </g>
     </g>
    </g>
    <g id="ytick_2">
     <g id="line2d_12"/>
     <g id="text_13">
      <!-- 4.5 -->
      <g style="fill:#262626;" transform="translate(25.61965625 379.922729911)scale(0.13 -0.13)">
       <use xlink:href="#ArialMT-34"/>
       <use x="55.615234375" xlink:href="#ArialMT-2e"/>
       <use x="83.3984375" xlink:href="#ArialMT-35"/>
      </g>
     </g>
    </g>
    <g id="ytick_3">
     <g id="line2d_13"/>
     <g id="text_14">
      <!-- 5.0 -->
      <g style="fill:#262626;" transform="translate(25.61965625 321.088444196)scale(0.13 -0.13)">
       <use xlink:href="#ArialMT-35"/>
       <use x="55.615234375" xlink:href="#ArialMT-2e"/>
       <use x="83.3984375" xlink:href="#ArialMT-30"/>
      </g>
     </g>
    </g>
    <g id="ytick_4">
     <g id="line2d_14"/>
     <g id="text_15">
      <!-- 5.5 -->
      <g style="fill:#262626;" transform="translate(25.61965625 262.254158482)scale(0.13 -0.13)">
       <use xlink:href="#ArialMT-35"/>
       <use x="55.615234375" xlink:href="#ArialMT-2e"/>
       <use x="83.3984375" xlink:href="#ArialMT-35"/>
      </g>
     </g>
    </g>
    <g id="ytick_5">
     <g id="line2d_15"/>
     <g id="text_16">
      <!-- 6.0 -->
      <g style="fill:#262626;" transform="translate(25.61965625 203.419872768)scale(0.13 -0.13)">
       <use xlink:href="#ArialMT-36"/>
       <use x="55.615234375" xlink:href="#ArialMT-2e"/>
       <use x="83.3984375" xlink:href="#ArialMT-30"/>
      </g>
     </g>
    </g>
    <g id="ytick_6">
     <g id="line2d_16"/>
     <g id="text_17">
      <!-- 6.5 -->
      <g style="fill:#262626;" transform="translate(25.61965625 144.585587054)scale(0.13 -0.13)">
       <use xlink:href="#ArialMT-36"/>
       <use x="55.615234375" xlink:href="#ArialMT-2e"/>
       <use x="83.3984375" xlink:href="#ArialMT-35"/>
      </g>
     </g>
    </g>
    <g id="ytick_7">
     <g id="line2d_17"/>
     <g id="text_18">
      <!-- 7.0 -->
      <defs>
       <path d="M 4.734375 62.203125 
L 4.734375 70.65625 
L 51.078125 70.65625 
L 51.078125 63.8125 
Q 44.234375 56.546875 37.515625 44.484375 
Q 30.8125 32.421875 27.15625 19.671875 
Q 24.515625 10.6875 23.78125 0 
L 14.75 0 
Q 14.890625 8.453125 18.0625 20.40625 
Q 21.234375 32.375 27.171875 43.484375 
Q 33.109375 54.59375 39.796875 62.203125 
z
" id="ArialMT-37"/>
      </defs>
      <g style="fill:#262626;" transform="translate(25.61965625 85.7513013393)scale(0.13 -0.13)">
       <use xlink:href="#ArialMT-37"/>
       <use x="55.615234375" xlink:href="#ArialMT-2e"/>
       <use x="83.3984375" xlink:href="#ArialMT-30"/>
      </g>
     </g>
    </g>
    <g id="ytick_8">
     <g id="line2d_18"/>
     <g id="text_19">
      <!-- 7.5 -->
      <g style="fill:#262626;" transform="translate(25.61965625 26.917015625)scale(0.13 -0.13)">
       <use xlink:href="#ArialMT-37"/>
       <use x="55.615234375" xlink:href="#ArialMT-2e"/>
       <use x="83.3984375" xlink:href="#ArialMT-35"/>
      </g>
     </g>
    </g>
    <g id="text_20">
     <!-- Unemployment rate (National) -->
     <defs>
      <path d="M 6.640625 61.46875 
L 6.640625 71.578125 
L 15.4375 71.578125 
L 15.4375 61.46875 
z
M 6.640625 0 
L 6.640625 51.859375 
L 15.4375 51.859375 
L 15.4375 0 
z
" id="ArialMT-69"/>
      <path d="M 6.203125 -19.96875 
L 5.21875 -11.71875 
Q 8.109375 -12.5 10.25 -12.5 
Q 13.1875 -12.5 14.9375 -11.515625 
Q 16.703125 -10.546875 17.828125 -8.796875 
Q 18.65625 -7.46875 20.515625 -2.25 
Q 20.75 -1.515625 21.296875 -0.09375 
L 1.609375 51.859375 
L 11.078125 51.859375 
L 21.875 21.828125 
Q 23.96875 16.109375 25.640625 9.8125 
Q 27.15625 15.875 29.25 21.625 
L 40.328125 51.859375 
L 49.125 51.859375 
L 29.390625 -0.875 
Q 26.21875 -9.421875 24.46875 -12.640625 
Q 22.125 -17 19.09375 -19.015625 
Q 16.0625 -21.046875 11.859375 -21.046875 
Q 9.328125 -21.046875 6.203125 -19.96875 
" id="ArialMT-79"/>
      <path d="M 23.390625 -21.046875 
Q 16.109375 -11.859375 11.078125 0.4375 
Q 6.0625 12.75 6.0625 25.921875 
Q 6.0625 37.546875 9.8125 48.1875 
Q 14.203125 60.546875 23.390625 72.796875 
L 29.6875 72.796875 
Q 23.78125 62.640625 21.875 58.296875 
Q 18.890625 51.5625 17.1875 44.234375 
Q 15.09375 35.109375 15.09375 25.875 
Q 15.09375 2.390625 29.6875 -21.046875 
z
" id="ArialMT-28"/>
      <path d="M 6.59375 -19.875 
L 6.59375 51.859375 
L 14.59375 51.859375 
L 14.59375 45.125 
Q 17.4375 49.078125 21 51.046875 
Q 24.5625 53.03125 29.640625 53.03125 
Q 36.28125 53.03125 41.359375 49.609375 
Q 46.4375 46.1875 49.015625 39.953125 
Q 51.609375 33.734375 51.609375 26.3125 
Q 51.609375 18.359375 48.75 11.984375 
Q 45.90625 5.609375 40.453125 2.21875 
Q 35.015625 -1.171875 29 -1.171875 
Q 24.609375 -1.171875 21.109375 0.6875 
Q 17.625 2.546875 15.375 5.375 
L 15.375 -19.875 
z
M 14.546875 25.640625 
Q 14.546875 15.625 18.59375 10.84375 
Q 22.65625 6.0625 28.421875 6.0625 
Q 34.28125 6.0625 38.453125 11.015625 
Q 42.625 15.96875 42.625 26.375 
Q 42.625 36.28125 38.546875 41.203125 
Q 34.46875 46.140625 28.8125 46.140625 
Q 23.1875 46.140625 18.859375 40.890625 
Q 14.546875 35.640625 14.546875 25.640625 
" id="ArialMT-70"/>
      <path d="M 6.59375 0 
L 6.59375 51.859375 
L 14.453125 51.859375 
L 14.453125 44.578125 
Q 16.890625 48.390625 20.9375 50.703125 
Q 25 53.03125 30.171875 53.03125 
Q 35.9375 53.03125 39.625 50.640625 
Q 43.3125 48.25 44.828125 43.953125 
Q 50.984375 53.03125 60.84375 53.03125 
Q 68.5625 53.03125 72.703125 48.75 
Q 76.859375 44.484375 76.859375 35.59375 
L 76.859375 0 
L 68.109375 0 
L 68.109375 32.671875 
Q 68.109375 37.9375 67.25 40.25 
Q 66.40625 42.578125 64.15625 43.984375 
Q 61.921875 45.40625 58.890625 45.40625 
Q 53.421875 45.40625 49.796875 41.765625 
Q 46.1875 38.140625 46.1875 30.125 
L 46.1875 0 
L 37.40625 0 
L 37.40625 33.6875 
Q 37.40625 39.546875 35.25 42.46875 
Q 33.109375 45.40625 28.21875 45.40625 
Q 24.515625 45.40625 21.359375 43.453125 
Q 18.21875 41.5 16.796875 37.734375 
Q 15.375 33.984375 15.375 26.90625 
L 15.375 0 
z
" id="ArialMT-6d"/>
      <path d="M 42.09375 16.703125 
L 51.171875 15.578125 
Q 49.03125 7.625 43.21875 3.21875 
Q 37.40625 -1.171875 28.375 -1.171875 
Q 17 -1.171875 10.328125 5.828125 
Q 3.65625 12.84375 3.65625 25.484375 
Q 3.65625 38.578125 10.390625 45.796875 
Q 17.140625 53.03125 27.875 53.03125 
Q 38.28125 53.03125 44.875 45.953125 
Q 51.46875 38.875 51.46875 26.03125 
Q 51.46875 25.25 51.421875 23.6875 
L 12.75 23.6875 
Q 13.234375 15.140625 17.578125 10.59375 
Q 21.921875 6.0625 28.421875 6.0625 
Q 33.25 6.0625 36.671875 8.59375 
Q 40.09375 11.140625 42.09375 16.703125 
M 13.234375 30.90625 
L 42.1875 30.90625 
Q 41.609375 37.453125 38.875 40.71875 
Q 34.671875 45.796875 27.984375 45.796875 
Q 21.921875 45.796875 17.796875 41.75 
Q 13.671875 37.703125 13.234375 30.90625 
" id="ArialMT-65"/>
      <path d="M 54.6875 71.578125 
L 64.15625 71.578125 
L 64.15625 30.21875 
Q 64.15625 19.4375 61.71875 13.078125 
Q 59.28125 6.734375 52.90625 2.75 
Q 46.53125 -1.21875 36.1875 -1.21875 
Q 26.125 -1.21875 19.71875 2.25 
Q 13.328125 5.71875 10.59375 12.28125 
Q 7.859375 18.84375 7.859375 30.21875 
L 7.859375 71.578125 
L 17.328125 71.578125 
L 17.328125 30.28125 
Q 17.328125 20.953125 19.0625 16.53125 
Q 20.796875 12.109375 25.015625 9.71875 
Q 29.25 7.328125 35.359375 7.328125 
Q 45.796875 7.328125 50.234375 12.0625 
Q 54.6875 16.796875 54.6875 30.28125 
z
" id="ArialMT-55"/>
      <path d="M 12.359375 -21.046875 
L 6.0625 -21.046875 
Q 20.65625 2.390625 20.65625 25.875 
Q 20.65625 35.0625 18.5625 44.09375 
Q 16.890625 51.421875 13.921875 58.15625 
Q 12.015625 62.546875 6.0625 72.796875 
L 12.359375 72.796875 
Q 21.53125 60.546875 25.921875 48.1875 
Q 29.6875 37.546875 29.6875 25.921875 
Q 29.6875 12.75 24.625 0.4375 
Q 19.578125 -11.859375 12.359375 -21.046875 
" id="ArialMT-29"/>
     </defs>
     <g style="fill:#262626;" transform="translate(17.609953125 324.842789062)rotate(-90.0)scale(0.14300000000000002 -0.14300000000000002)">
      <use xlink:href="#ArialMT-55"/>
      <use x="72.216796875" xlink:href="#ArialMT-6e"/>
      <use x="127.83203125" xlink:href="#ArialMT-65"/>
      <use x="183.447265625" xlink:href="#ArialMT-6d"/>
      <use x="266.748046875" xlink:href="#ArialMT-70"/>
      <use x="322.36328125" xlink:href="#ArialMT-6c"/>
      <use x="344.580078125" xlink:href="#ArialMT-6f"/>
      <use x="400.1953125" xlink:href="#ArialMT-79"/>
      <use x="450.1953125" xlink:href="#ArialMT-6d"/>
      <use x="533.49609375" xlink:href="#ArialMT-65"/>
      <use x="589.111328125" xlink:href="#ArialMT-6e"/>
      <use x="644.7265625" xlink:href="#ArialMT-74"/>
      <use x="672.509765625" xlink:href="#ArialMT-20"/>
      <use x="700.29296875" xlink:href="#ArialMT-72"/>
      <use x="733.59375" xlink:href="#ArialMT-61"/>
      <use x="789.208984375" xlink:href="#ArialMT-74"/>
      <use x="816.9921875" xlink:href="#ArialMT-65"/>
      <use x="872.607421875" xlink:href="#ArialMT-20"/>
      <use x="900.390625" xlink:href="#ArialMT-28"/>
      <use x="933.69140625" xlink:href="#ArialMT-4e"/>
      <use x="1005.908203125" xlink:href="#ArialMT-61"/>
      <use x="1061.5234375" xlink:href="#ArialMT-74"/>
      <use x="1089.306640625" xlink:href="#ArialMT-69"/>
      <use x="1111.5234375" xlink:href="#ArialMT-6f"/>
      <use x="1167.138671875" xlink:href="#ArialMT-6e"/>
      <use x="1222.75390625" xlink:href="#ArialMT-61"/>
      <use x="1278.369140625" xlink:href="#ArialMT-6c"/>
      <use x="1300.5859375" xlink:href="#ArialMT-29"/>
     </g>
    </g>
   </g>
   <g id="PolyCollection_1">
    <defs>
     <path d="M 513.430868 -128.634703 
L 513.430868 -128.634703 
L 528.573899 -153.593135 
L 543.228444 -157.740291 
L 558.371474 -159.155551 
L 573.514505 -146.947097 
L 588.16905 -132.358373 
L 603.31208 -137.57255 
L 617.966626 -138.365393 
L 633.109656 -133.456908 
L 633.109656 -133.456908 
L 633.109656 -89.086337 
L 617.966626 -100.126622 
L 603.31208 -103.807947 
L 588.16905 -81.826955 
L 573.514505 -100.776236 
L 558.371474 -126.966393 
L 543.228444 -128.343619 
L 528.573899 -121.73825 
L 513.430868 -128.634703 
z
" id="m2964223a7d" style="stroke:#000000;stroke-opacity:0.1;stroke-width:0.39;"/>
    </defs>
    <g clip-path="url(#pde9d28ca06)">
     <use style="fill:#0000ff;fill-opacity:0.1;stroke:#000000;stroke-opacity:0.1;stroke-width:0.39;" x="0.0" xlink:href="#m2964223a7d" y="481.663015625"/>
    </g>
   </g>
   <g id="PolyCollection_2">
    <defs>
     <path d="M 513.430868 -128.634703 
L 513.430868 -128.634703 
L 528.573899 -153.593135 
L 543.228444 -157.740291 
L 558.371474 -159.155551 
L 573.514505 -146.947097 
L 588.16905 -132.358373 
L 603.31208 -137.57255 
L 617.966626 -138.365393 
L 633.109656 -133.456908 
L 633.109656 -133.456908 
L 633.109656 -168.010511 
L 617.966626 -178.189849 
L 603.31208 -181.765508 
L 588.16905 -153.712343 
L 573.514505 -168.701051 
L 558.371474 -194.175232 
L 543.228444 -195.431274 
L 528.573899 -188.297454 
L 513.430868 -128.634703 
z
" id="md61d5328f4" style="stroke:#000000;stroke-opacity:0.1;stroke-width:0.39;"/>
    </defs>
    <g clip-path="url(#pde9d28ca06)">
     <use style="fill:#0000ff;fill-opacity:0.1;stroke:#000000;stroke-opacity:0.1;stroke-width:0.39;" x="0.0" xlink:href="#md61d5328f4" y="481.663015625"/>
    </g>
   </g>
   <g id="line2d_19">
    <path clip-path="url(#pde9d28ca06)" d="M 52.789656 58.856884 
L 67.932687 94.157455 
L 82.587232 117.69117 
L 97.730262 129.458027 
L 112.873293 117.69117 
L 126.550868 117.69117 
L 141.693899 176.525455 
L 156.348444 164.758598 
L 171.491474 188.292312 
L 186.14602 176.525455 
L 201.28905 176.525455 
L 216.43208 211.826027 
L 231.086626 235.359741 
L 246.229656 223.592884 
L 260.884202 247.126598 
L 276.027232 235.359741 
L 291.170262 258.893455 
L 304.847838 270.660312 
L 319.990868 270.660312 
L 334.645414 258.893455 
L 349.788444 282.42717 
L 364.44299 294.194027 
L 379.58602 305.960884 
L 394.72905 317.727741 
L 409.383596 317.727741 
L 424.526626 317.727741 
L 439.181171 317.727741 
L 454.324202 329.494598 
L 469.467232 329.494598 
L 483.633293 317.727741 
L 498.776323 317.727741 
L 513.430868 353.028312 
L 528.573899 329.494598 
L 543.228444 329.494598 
L 558.371474 329.494598 
L 573.514505 329.494598 
L 588.16905 341.261455 
L 603.31208 364.79517 
L 617.966626 353.028312 
L 633.109656 341.261455 
" style="fill:none;stroke:#000000;stroke-linecap:round;stroke-width:2.275;"/>
   </g>
   <g id="line2d_20">
    <path clip-path="url(#pde9d28ca06)" d="M 513.430868 353.028312 
L 528.573899 328.069881 
L 543.228444 323.922725 
L 558.371474 322.507464 
L 573.514505 334.715918 
L 588.16905 349.304643 
L 603.31208 344.090465 
L 617.966626 343.297623 
L 633.109656 348.206107 
" style="fill:none;stroke:#0000ff;stroke-linecap:round;stroke-width:2.275;"/>
   </g>
   <g id="line2d_21">
    <path clip-path="url(#pde9d28ca06)" d="M 513.430868 353.028312 
L 528.573899 359.924766 
L 543.228444 353.319397 
L 558.371474 354.696623 
L 573.514505 380.88678 
L 588.16905 399.836061 
L 603.31208 377.855069 
L 617.966626 381.536394 
L 633.109656 392.576678 
" style="fill:none;stroke:#0000ff;stroke-dasharray:6.000000,6.000000;stroke-dashoffset:0.0;stroke-width:2.275;"/>
   </g>
   <g id="line2d_22">
    <path clip-path="url(#pde9d28ca06)" d="M 513.430868 353.028312 
L 528.573899 293.365561 
L 543.228444 286.231742 
L 558.371474 287.487784 
L 573.514505 312.961965 
L 588.16905 327.950673 
L 603.31208 299.897508 
L 617.966626 303.473167 
L 633.109656 313.652504 
" style="fill:none;stroke:#0000ff;stroke-dasharray:6.000000,6.000000;stroke-dashoffset:0.0;stroke-width:2.275;"/>
   </g>
   <g id="patch_3">
    <path d="M 52.789656 435.396313 
L 52.789656 23.556312 
" style="fill:none;stroke:#262626;stroke-linecap:square;stroke-linejoin:miter;stroke-width:1.25;"/>
   </g>
   <g id="patch_4">
    <path d="M 52.789656 435.396312 
L 633.109656 435.396312 
" style="fill:none;stroke:#262626;stroke-linecap:square;stroke-linejoin:miter;stroke-width:1.25;"/>
   </g>
   <g id="text_21">
    <!-- Unemployment rate with ARIMA(4,1,0) model prediction -->
    <defs>
     <path d="M 16.15625 0 
L 0.296875 51.859375 
L 9.375 51.859375 
L 17.625 21.921875 
L 20.703125 10.796875 
Q 20.90625 11.625 23.390625 21.484375 
L 31.640625 51.859375 
L 40.671875 51.859375 
L 48.4375 21.78125 
L 51.03125 11.859375 
L 54 21.875 
L 62.890625 51.859375 
L 71.4375 51.859375 
L 55.21875 0 
L 46.09375 0 
L 37.84375 31.0625 
L 35.84375 39.890625 
L 25.34375 0 
z
" id="ArialMT-77"/>
     <path d="M 8.890625 0 
L 8.890625 10.015625 
L 18.890625 10.015625 
L 18.890625 0 
Q 18.890625 -5.515625 16.9375 -8.90625 
Q 14.984375 -12.3125 10.75 -14.15625 
L 8.296875 -10.40625 
Q 11.078125 -9.1875 12.390625 -6.8125 
Q 13.71875 -4.4375 13.875 0 
z
" id="ArialMT-2c"/>
     <path d="M 40.4375 19 
L 49.078125 17.875 
Q 47.65625 8.9375 41.8125 3.875 
Q 35.984375 -1.171875 27.484375 -1.171875 
Q 16.84375 -1.171875 10.375 5.78125 
Q 3.90625 12.75 3.90625 25.734375 
Q 3.90625 34.125 6.6875 40.421875 
Q 9.46875 46.734375 15.15625 49.875 
Q 20.84375 53.03125 27.546875 53.03125 
Q 35.984375 53.03125 41.359375 48.75 
Q 46.734375 44.484375 48.25 36.625 
L 39.703125 35.296875 
Q 38.484375 40.53125 35.375 43.15625 
Q 32.28125 45.796875 27.875 45.796875 
Q 21.234375 45.796875 17.078125 41.03125 
Q 12.9375 36.28125 12.9375 25.984375 
Q 12.9375 15.53125 16.9375 10.796875 
Q 20.953125 6.0625 27.390625 6.0625 
Q 32.5625 6.0625 36.03125 9.234375 
Q 39.5 12.40625 40.4375 19 
" id="ArialMT-63"/>
     <path d="M 40.234375 0 
L 40.234375 6.546875 
Q 35.296875 -1.171875 25.734375 -1.171875 
Q 19.53125 -1.171875 14.328125 2.25 
Q 9.125 5.671875 6.265625 11.796875 
Q 3.421875 17.921875 3.421875 25.875 
Q 3.421875 33.640625 6 39.96875 
Q 8.59375 46.296875 13.765625 49.65625 
Q 18.953125 53.03125 25.34375 53.03125 
Q 30.03125 53.03125 33.6875 51.046875 
Q 37.359375 49.078125 39.65625 45.90625 
L 39.65625 71.578125 
L 48.390625 71.578125 
L 48.390625 0 
z
M 12.453125 25.875 
Q 12.453125 15.921875 16.640625 10.984375 
Q 20.84375 6.0625 26.5625 6.0625 
Q 32.328125 6.0625 36.34375 10.765625 
Q 40.375 15.484375 40.375 25.140625 
Q 40.375 35.796875 36.265625 40.765625 
Q 32.171875 45.75 26.171875 45.75 
Q 20.3125 45.75 16.375 40.96875 
Q 12.453125 36.1875 12.453125 25.875 
" id="ArialMT-64"/>
     <path d="M -0.140625 0 
L 27.34375 71.578125 
L 37.546875 71.578125 
L 66.84375 0 
L 56.0625 0 
L 47.703125 21.6875 
L 17.78125 21.6875 
L 9.90625 0 
z
M 20.515625 29.390625 
L 44.78125 29.390625 
L 37.3125 49.21875 
Q 33.890625 58.25 32.234375 64.0625 
Q 30.859375 57.171875 28.375 50.390625 
z
" id="ArialMT-41"/>
     <path d="M 7.859375 0 
L 7.859375 71.578125 
L 39.59375 71.578125 
Q 49.171875 71.578125 54.140625 69.640625 
Q 59.125 67.71875 62.109375 62.828125 
Q 65.09375 57.953125 65.09375 52.046875 
Q 65.09375 44.4375 60.15625 39.203125 
Q 55.21875 33.984375 44.921875 32.5625 
Q 48.6875 30.765625 50.640625 29 
Q 54.78125 25.203125 58.5 19.484375 
L 70.953125 0 
L 59.03125 0 
L 49.5625 14.890625 
Q 45.40625 21.34375 42.71875 24.75 
Q 40.046875 28.171875 37.921875 29.53125 
Q 35.796875 30.90625 33.59375 31.453125 
Q 31.984375 31.78125 28.328125 31.78125 
L 17.328125 31.78125 
L 17.328125 0 
z
M 17.328125 39.984375 
L 37.703125 39.984375 
Q 44.1875 39.984375 47.84375 41.328125 
Q 51.515625 42.671875 53.421875 45.625 
Q 55.328125 48.578125 55.328125 52.046875 
Q 55.328125 57.125 51.640625 60.390625 
Q 47.953125 63.671875 39.984375 63.671875 
L 17.328125 63.671875 
z
" id="ArialMT-52"/>
     <path d="M 9.328125 0 
L 9.328125 71.578125 
L 18.796875 71.578125 
L 18.796875 0 
z
" id="ArialMT-49"/>
    </defs>
    <g style="fill:#262626;" transform="translate(150.0544375 18.5563125)scale(0.15600000000000003 -0.15600000000000003)">
     <use xlink:href="#ArialMT-55"/>
     <use x="72.216796875" xlink:href="#ArialMT-6e"/>
     <use x="127.83203125" xlink:href="#ArialMT-65"/>
     <use x="183.447265625" xlink:href="#ArialMT-6d"/>
     <use x="266.748046875" xlink:href="#ArialMT-70"/>
     <use x="322.36328125" xlink:href="#ArialMT-6c"/>
     <use x="344.580078125" xlink:href="#ArialMT-6f"/>
     <use x="400.1953125" xlink:href="#ArialMT-79"/>
     <use x="450.1953125" xlink:href="#ArialMT-6d"/>
     <use x="533.49609375" xlink:href="#ArialMT-65"/>
     <use x="589.111328125" xlink:href="#ArialMT-6e"/>
     <use x="644.7265625" xlink:href="#ArialMT-74"/>
     <use x="672.509765625" xlink:href="#ArialMT-20"/>
     <use x="700.29296875" xlink:href="#ArialMT-72"/>
     <use x="733.59375" xlink:href="#ArialMT-61"/>
     <use x="789.208984375" xlink:href="#ArialMT-74"/>
     <use x="816.9921875" xlink:href="#ArialMT-65"/>
     <use x="872.607421875" xlink:href="#ArialMT-20"/>
     <use x="900.390625" xlink:href="#ArialMT-77"/>
     <use x="972.607421875" xlink:href="#ArialMT-69"/>
     <use x="994.82421875" xlink:href="#ArialMT-74"/>
     <use x="1022.607421875" xlink:href="#ArialMT-68"/>
     <use x="1078.22265625" xlink:href="#ArialMT-20"/>
     <use x="1105.927734375" xlink:href="#ArialMT-41"/>
     <use x="1172.626953125" xlink:href="#ArialMT-52"/>
     <use x="1244.84375" xlink:href="#ArialMT-49"/>
     <use x="1272.626953125" xlink:href="#ArialMT-4d"/>
     <use x="1355.927734375" xlink:href="#ArialMT-41"/>
     <use x="1422.626953125" xlink:href="#ArialMT-28"/>
     <use x="1455.927734375" xlink:href="#ArialMT-34"/>
     <use x="1511.54296875" xlink:href="#ArialMT-2c"/>
     <use x="1539.326171875" xlink:href="#ArialMT-31"/>
     <use x="1594.94140625" xlink:href="#ArialMT-2c"/>
     <use x="1622.724609375" xlink:href="#ArialMT-30"/>
     <use x="1678.33984375" xlink:href="#ArialMT-29"/>
     <use x="1711.640625" xlink:href="#ArialMT-20"/>
     <use x="1739.423828125" xlink:href="#ArialMT-6d"/>
     <use x="1822.724609375" xlink:href="#ArialMT-6f"/>
     <use x="1878.33984375" xlink:href="#ArialMT-64"/>
     <use x="1933.955078125" xlink:href="#ArialMT-65"/>
     <use x="1989.5703125" xlink:href="#ArialMT-6c"/>
     <use x="2011.787109375" xlink:href="#ArialMT-20"/>
     <use x="2039.5703125" xlink:href="#ArialMT-70"/>
     <use x="2095.185546875" xlink:href="#ArialMT-72"/>
     <use x="2128.486328125" xlink:href="#ArialMT-65"/>
     <use x="2184.1015625" xlink:href="#ArialMT-64"/>
     <use x="2239.716796875" xlink:href="#ArialMT-69"/>
     <use x="2261.93359375" xlink:href="#ArialMT-63"/>
     <use x="2311.93359375" xlink:href="#ArialMT-74"/>
     <use x="2339.716796875" xlink:href="#ArialMT-69"/>
     <use x="2361.93359375" xlink:href="#ArialMT-6f"/>
     <use x="2417.548828125" xlink:href="#ArialMT-6e"/>
    </g>
   </g>
   <g id="legend_1">
    <g id="line2d_23">
     <path d="M 445.576531 40.011469 
L 471.576531 40.011469 
" style="fill:none;stroke:#000000;stroke-linecap:round;stroke-width:2.275;"/>
    </g>
    <g id="line2d_24"/>
    <g id="text_22">
     <!-- Unemployemnt Rate -->
     <g style="fill:#262626;" transform="translate(481.97653125 44.56146875)scale(0.13 -0.13)">
      <use xlink:href="#ArialMT-55"/>
      <use x="72.216796875" xlink:href="#ArialMT-6e"/>
      <use x="127.83203125" xlink:href="#ArialMT-65"/>
      <use x="183.447265625" xlink:href="#ArialMT-6d"/>
      <use x="266.748046875" xlink:href="#ArialMT-70"/>
      <use x="322.36328125" xlink:href="#ArialMT-6c"/>
      <use x="344.580078125" xlink:href="#ArialMT-6f"/>
      <use x="400.1953125" xlink:href="#ArialMT-79"/>
      <use x="450.1953125" xlink:href="#ArialMT-65"/>
      <use x="505.810546875" xlink:href="#ArialMT-6d"/>
      <use x="589.111328125" xlink:href="#ArialMT-6e"/>
      <use x="644.7265625" xlink:href="#ArialMT-74"/>
      <use x="672.509765625" xlink:href="#ArialMT-20"/>
      <use x="700.29296875" xlink:href="#ArialMT-52"/>
      <use x="772.509765625" xlink:href="#ArialMT-61"/>
      <use x="828.125" xlink:href="#ArialMT-74"/>
      <use x="855.908203125" xlink:href="#ArialMT-65"/>
     </g>
    </g>
    <g id="line2d_25">
     <path d="M 445.576531 58.711156 
L 471.576531 58.711156 
" style="fill:none;stroke:#0000ff;stroke-linecap:round;stroke-width:2.275;"/>
    </g>
    <g id="line2d_26"/>
    <g id="text_23">
     <!-- Prediction (with 95% CI) -->
     <defs>
      <path d="M 58.796875 25.09375 
L 68.265625 22.703125 
Q 65.28125 11.03125 57.546875 4.90625 
Q 49.8125 -1.21875 38.625 -1.21875 
Q 27.046875 -1.21875 19.796875 3.484375 
Q 12.546875 8.203125 8.765625 17.140625 
Q 4.984375 26.078125 4.984375 36.328125 
Q 4.984375 47.515625 9.25 55.828125 
Q 13.53125 64.15625 21.40625 68.46875 
Q 29.296875 72.796875 38.765625 72.796875 
Q 49.515625 72.796875 56.828125 67.328125 
Q 64.15625 61.859375 67.046875 51.953125 
L 57.71875 49.75 
Q 55.21875 57.5625 50.484375 61.125 
Q 45.75 64.703125 38.578125 64.703125 
Q 30.328125 64.703125 24.78125 60.734375 
Q 19.234375 56.78125 16.984375 50.109375 
Q 14.75 43.453125 14.75 36.375 
Q 14.75 27.25 17.40625 20.4375 
Q 20.0625 13.625 25.671875 10.25 
Q 31.296875 6.890625 37.84375 6.890625 
Q 45.796875 6.890625 51.3125 11.46875 
Q 56.84375 16.0625 58.796875 25.09375 
" id="ArialMT-43"/>
      <path d="M 5.8125 54.390625 
Q 5.8125 62.0625 9.671875 67.421875 
Q 13.53125 72.796875 20.84375 72.796875 
Q 27.59375 72.796875 32 67.984375 
Q 36.421875 63.1875 36.421875 53.859375 
Q 36.421875 44.78125 31.953125 39.875 
Q 27.484375 34.96875 20.953125 34.96875 
Q 14.453125 34.96875 10.125 39.796875 
Q 5.8125 44.625 5.8125 54.390625 
M 21.09375 66.75 
Q 17.828125 66.75 15.65625 63.90625 
Q 13.484375 61.078125 13.484375 53.515625 
Q 13.484375 46.625 15.671875 43.8125 
Q 17.875 41.015625 21.09375 41.015625 
Q 24.421875 41.015625 26.59375 43.84375 
Q 28.765625 46.6875 28.765625 54.203125 
Q 28.765625 61.140625 26.5625 63.9375 
Q 24.359375 66.75 21.09375 66.75 
M 21.140625 -2.640625 
L 60.296875 72.796875 
L 67.4375 72.796875 
L 28.421875 -2.640625 
z
M 52.09375 16.796875 
Q 52.09375 24.515625 55.953125 29.859375 
Q 59.8125 35.203125 67.1875 35.203125 
Q 73.921875 35.203125 78.34375 30.390625 
Q 82.765625 25.59375 82.765625 16.265625 
Q 82.765625 7.171875 78.296875 2.265625 
Q 73.828125 -2.640625 67.234375 -2.640625 
Q 60.75 -2.640625 56.421875 2.21875 
Q 52.09375 7.078125 52.09375 16.796875 
M 67.4375 29.15625 
Q 64.109375 29.15625 61.9375 26.3125 
Q 59.765625 23.484375 59.765625 15.921875 
Q 59.765625 9.078125 61.953125 6.25 
Q 64.15625 3.421875 67.390625 3.421875 
Q 70.75 3.421875 72.921875 6.25 
Q 75.09375 9.078125 75.09375 16.609375 
Q 75.09375 23.53125 72.890625 26.34375 
Q 70.703125 29.15625 67.4375 29.15625 
" id="ArialMT-25"/>
      <path d="M 5.46875 16.546875 
L 13.921875 17.328125 
Q 14.984375 11.375 18.015625 8.6875 
Q 21.046875 6 25.78125 6 
Q 29.828125 6 32.875 7.859375 
Q 35.9375 9.71875 37.890625 12.8125 
Q 39.84375 15.921875 41.15625 21.1875 
Q 42.484375 26.46875 42.484375 31.9375 
Q 42.484375 32.515625 42.4375 33.6875 
Q 39.796875 29.5 35.234375 26.875 
Q 30.671875 24.265625 25.34375 24.265625 
Q 16.453125 24.265625 10.296875 30.703125 
Q 4.15625 37.15625 4.15625 47.703125 
Q 4.15625 58.59375 10.578125 65.234375 
Q 17 71.875 26.65625 71.875 
Q 33.640625 71.875 39.421875 68.109375 
Q 45.21875 64.359375 48.21875 57.390625 
Q 51.21875 50.4375 51.21875 37.25 
Q 51.21875 23.53125 48.234375 15.40625 
Q 45.265625 7.28125 39.375 3.03125 
Q 33.5 -1.21875 25.59375 -1.21875 
Q 17.1875 -1.21875 11.859375 3.4375 
Q 6.546875 8.109375 5.46875 16.546875 
M 41.453125 48.140625 
Q 41.453125 55.71875 37.421875 60.15625 
Q 33.40625 64.59375 27.734375 64.59375 
Q 21.875 64.59375 17.53125 59.8125 
Q 13.1875 55.03125 13.1875 47.40625 
Q 13.1875 40.578125 17.3125 36.296875 
Q 21.4375 32.03125 27.484375 32.03125 
Q 33.59375 32.03125 37.515625 36.296875 
Q 41.453125 40.578125 41.453125 48.140625 
" id="ArialMT-39"/>
      <path d="M 7.71875 0 
L 7.71875 71.578125 
L 34.71875 71.578125 
Q 41.84375 71.578125 45.609375 70.90625 
Q 50.875 70.015625 54.4375 67.546875 
Q 58.015625 65.09375 60.1875 60.640625 
Q 62.359375 56.203125 62.359375 50.875 
Q 62.359375 41.75 56.546875 35.421875 
Q 50.734375 29.109375 35.546875 29.109375 
L 17.1875 29.109375 
L 17.1875 0 
z
M 17.1875 37.546875 
L 35.6875 37.546875 
Q 44.875 37.546875 48.734375 40.96875 
Q 52.59375 44.390625 52.59375 50.59375 
Q 52.59375 55.078125 50.3125 58.265625 
Q 48.046875 61.46875 44.34375 62.5 
Q 41.9375 63.140625 35.5 63.140625 
L 17.1875 63.140625 
z
" id="ArialMT-50"/>
     </defs>
     <g style="fill:#262626;" transform="translate(481.97653125 63.26115625)scale(0.13 -0.13)">
      <use xlink:href="#ArialMT-50"/>
      <use x="66.69921875" xlink:href="#ArialMT-72"/>
      <use x="100.0" xlink:href="#ArialMT-65"/>
      <use x="155.615234375" xlink:href="#ArialMT-64"/>
      <use x="211.23046875" xlink:href="#ArialMT-69"/>
      <use x="233.447265625" xlink:href="#ArialMT-63"/>
      <use x="283.447265625" xlink:href="#ArialMT-74"/>
      <use x="311.23046875" xlink:href="#ArialMT-69"/>
      <use x="333.447265625" xlink:href="#ArialMT-6f"/>
      <use x="389.0625" xlink:href="#ArialMT-6e"/>
      <use x="444.677734375" xlink:href="#ArialMT-20"/>
      <use x="472.4609375" xlink:href="#ArialMT-28"/>
      <use x="505.76171875" xlink:href="#ArialMT-77"/>
      <use x="577.978515625" xlink:href="#ArialMT-69"/>
      <use x="600.1953125" xlink:href="#ArialMT-74"/>
      <use x="627.978515625" xlink:href="#ArialMT-68"/>
      <use x="683.59375" xlink:href="#ArialMT-20"/>
      <use x="711.376953125" xlink:href="#ArialMT-39"/>
      <use x="766.9921875" xlink:href="#ArialMT-35"/>
      <use x="822.607421875" xlink:href="#ArialMT-25"/>
      <use x="911.5234375" xlink:href="#ArialMT-20"/>
      <use x="939.306640625" xlink:href="#ArialMT-43"/>
      <use x="1011.5234375" xlink:href="#ArialMT-49"/>
      <use x="1039.306640625" xlink:href="#ArialMT-29"/>
     </g>
    </g>
   </g>
  </g>
 </g>
 <defs>
  <clipPath id="pde9d28ca06">
   <rect height="411.84" width="580.32" x="52.78965625" y="23.5563125"/>
  </clipPath>
 </defs>
</svg>
